<?xml version="1.0" encoding="utf-8" ?>
<svg baseProfile="tiny" height="100%" version="1.2" width="100%" xmlns="http://www.w3.org/2000/svg" xmlns:ev="http://www.w3.org/2001/xml-events" xmlns:xlink="http://www.w3.org/1999/xlink"><defs /><path d="M 27,46 L 27,47 L 26,48 L 26,49 L 27,50 L 27,54 L 28,55 L 28,56 L 30,58 L 30,59 L 33,62 L 34,62 L 35,63 L 36,63 L 37,64 L 39,64 L 40,65 L 43,65 L 44,66 L 44,79 L 45,80 L 47,80 L 48,79 L 48,60 L 47,59 L 47,57 L 46,56 L 46,55 L 45,54 L 45,53 L 41,49 L 40,49 L 39,48 L 38,48 L 37,47 L 35,47 L 34,46 Z" fill="black" /><path d="M 57,41 L 56,42 L 54,42 L 53,43 L 52,43 L 46,49 L 47,50 L 47,51 L 49,53 L 49,54 L 50,55 L 50,57 L 51,58 L 51,60 L 52,60 L 53,59 L 55,59 L 56,58 L 57,58 L 63,52 L 63,51 L 64,50 L 64,49 L 65,48 L 65,42 L 64,41 Z" fill="black" /></svg>